<?xml version="1.0" encoding="UTF-8"?>
<svg xmlns="http://www.w3.org/2000/svg" xmlns:xlink="http://www.w3.org/1999/xlink" width="174px" height="19px" viewBox="0 0 174 19" version="1.1">
<defs>
<clipPath id="clip1">
  <path d="M 2.804688 0 L 171.191406 0 L 171.191406 18.386719 L 2.804688 18.386719 Z M 2.804688 0 "/>
</clipPath>
</defs>
<g id="surface1">
<g clip-path="url(#clip1)" clip-rule="nonzero">
<path style=" stroke:none;fill-rule:nonzero;fill:rgb(100%,100%,100%);fill-opacity:1;" d="M 2.804688 0 L 171.195312 0 L 171.195312 18.386719 L 2.804688 18.386719 Z M 2.804688 0 "/>
<path style=" stroke:none;fill-rule:nonzero;fill:rgb(100%,100%,100%);fill-opacity:1;" d="M 2.804688 0 L 171.195312 0 L 171.195312 18.386719 L 2.804688 18.386719 Z M 2.804688 0 "/>
</g>
<path style=" stroke:none;fill-rule:nonzero;fill:rgb(0%,74.901962%,38.82353%);fill-opacity:1;" d="M 26.210938 12.445312 C 25.292969 12.445312 24.472656 12.367188 23.746094 12.207031 C 23.03125 12.042969 22.460938 11.800781 22.023438 11.484375 C 21.589844 11.167969 21.359375 10.789062 21.335938 10.335938 L 24.578125 10.335938 C 24.625 10.589844 24.785156 10.78125 25.050781 10.910156 C 25.328125 11.046875 25.683594 11.109375 26.121094 11.109375 C 26.566406 11.109375 26.921875 11.054688 27.191406 10.941406 C 27.453125 10.828125 27.589844 10.675781 27.589844 10.476562 C 27.589844 10.304688 27.480469 10.167969 27.261719 10.058594 C 27.054688 9.949219 26.800781 9.859375 26.5 9.785156 C 26.199219 9.710938 25.765625 9.632812 25.214844 9.546875 C 24.402344 9.40625 23.746094 9.273438 23.238281 9.140625 C 22.730469 9 22.285156 8.800781 21.914062 8.535156 C 21.554688 8.265625 21.371094 7.921875 21.371094 7.496094 C 21.371094 6.859375 21.789062 6.359375 22.621094 6.003906 C 23.464844 5.648438 24.566406 5.46875 25.921875 5.46875 C 27.296875 5.46875 28.402344 5.648438 29.238281 6.003906 C 30.082031 6.359375 30.535156 6.863281 30.597656 7.507812 L 27.316406 7.507812 C 27.289062 7.285156 27.140625 7.109375 26.863281 6.984375 C 26.597656 6.859375 26.246094 6.792969 25.8125 6.792969 C 25.449219 6.792969 25.152344 6.847656 24.925781 6.953125 C 24.707031 7.058594 24.597656 7.214844 24.597656 7.417969 C 24.597656 7.636719 24.785156 7.808594 25.160156 7.933594 C 25.546875 8.050781 26.136719 8.183594 26.9375 8.328125 C 27.742188 8.472656 28.394531 8.617188 28.894531 8.753906 C 29.402344 8.894531 29.835938 9.089844 30.199219 9.347656 C 30.570312 9.605469 30.761719 9.9375 30.761719 10.347656 C 30.761719 10.738281 30.578125 11.089844 30.214844 11.40625 C 29.855469 11.722656 29.328125 11.976562 28.640625 12.167969 C 27.949219 12.355469 27.140625 12.445312 26.210938 12.445312 Z M 26.210938 12.445312 "/>
<path style=" stroke:none;fill-rule:nonzero;fill:rgb(0%,74.901962%,38.82353%);fill-opacity:1;" d="M 40.402344 11.167969 L 35.726562 11.167969 L 34.984375 12.375 L 31.8125 12.375 L 36.324219 5.558594 L 39.84375 5.558594 L 44.355469 12.375 L 41.148438 12.375 Z M 39.605469 9.890625 L 38.066406 7.398438 L 36.542969 9.890625 Z M 39.605469 9.890625 "/>
<path style=" stroke:none;fill-rule:nonzero;fill:rgb(0%,74.901962%,38.82353%);fill-opacity:1;" d="M 53.539062 5.558594 L 53.539062 10.199219 C 53.539062 10.917969 53.167969 11.472656 52.433594 11.863281 C 51.695312 12.253906 50.699219 12.445312 49.441406 12.445312 C 48.125 12.445312 47.066406 12.242188 46.269531 11.832031 C 45.480469 11.421875 45.09375 10.84375 45.09375 10.089844 L 48.101562 10.089844 C 48.101562 10.382812 48.210938 10.601562 48.425781 10.742188 C 48.644531 10.890625 48.953125 10.960938 49.351562 10.960938 C 49.714844 10.960938 49.996094 10.898438 50.203125 10.773438 C 50.40625 10.640625 50.511719 10.453125 50.511719 10.199219 L 50.511719 5.558594 Z M 53.539062 5.558594 "/>
<path style=" stroke:none;fill-rule:nonzero;fill:rgb(0%,74.901962%,38.82353%);fill-opacity:1;" d="M 59.042969 6.894531 L 59.042969 8.269531 L 63.105469 8.269531 L 63.105469 9.554688 L 59.042969 9.554688 L 59.042969 11.050781 L 63.648438 11.050781 L 63.648438 12.375 L 56 12.375 L 56 5.558594 L 63.648438 5.558594 L 63.648438 6.894531 Z M 59.042969 6.894531 "/>
<path style=" stroke:none;fill-rule:nonzero;fill:rgb(0%,74.901962%,38.82353%);fill-opacity:1;" d="M 72.847656 12.375 L 68.660156 9.367188 L 68.660156 12.375 L 65.613281 12.375 L 65.613281 5.558594 L 68.660156 5.558594 L 68.660156 8.546875 L 72.808594 5.558594 L 76.378906 5.558594 L 71.542969 8.902344 L 76.5625 12.375 Z M 72.847656 12.375 "/>
<path style=" stroke:none;fill-rule:nonzero;fill:rgb(0%,0%,0%);fill-opacity:1;" d="M 85.886719 5.605469 L 85.886719 6.328125 L 82.515625 6.328125 L 82.515625 12.375 L 80.902344 12.375 L 80.902344 6.328125 L 77.496094 6.328125 L 77.496094 5.605469 Z M 85.886719 5.605469 "/>
<path style=" stroke:none;fill-rule:nonzero;fill:rgb(0%,0%,0%);fill-opacity:1;" d="M 93.507812 12.445312 C 92.347656 12.445312 91.289062 12.300781 90.335938 12.011719 C 89.394531 11.714844 88.640625 11.300781 88.089844 10.773438 C 87.546875 10.246094 87.273438 9.652344 87.273438 8.992188 C 87.273438 8.332031 87.546875 7.738281 88.089844 7.210938 C 88.640625 6.683594 89.394531 6.269531 90.335938 5.972656 C 91.289062 5.675781 92.347656 5.527344 93.507812 5.527344 C 94.667969 5.527344 95.71875 5.675781 96.660156 5.972656 C 97.613281 6.269531 98.367188 6.683594 98.910156 7.210938 C 99.453125 7.730469 99.726562 8.324219 99.726562 8.992188 C 99.726562 9.660156 99.453125 10.253906 98.910156 10.78125 C 98.367188 11.304688 97.613281 11.714844 96.660156 12.011719 C 95.71875 12.300781 94.667969 12.445312 93.507812 12.445312 Z M 93.507812 11.671875 C 94.363281 11.671875 95.140625 11.566406 95.828125 11.347656 C 96.527344 11.128906 97.078125 10.816406 97.476562 10.40625 C 97.875 10 98.074219 9.527344 98.074219 8.992188 C 98.074219 8.445312 97.875 7.96875 97.476562 7.566406 C 97.078125 7.164062 96.535156 6.855469 95.847656 6.636719 C 95.15625 6.414062 94.378906 6.300781 93.507812 6.300781 C 92.625 6.300781 91.839844 6.414062 91.152344 6.636719 C 90.464844 6.855469 89.917969 7.164062 89.519531 7.566406 C 89.121094 7.96875 88.921875 8.445312 88.921875 8.992188 C 88.921875 9.527344 89.121094 10 89.519531 10.40625 C 89.917969 10.816406 90.464844 11.128906 91.152344 11.347656 C 91.851562 11.566406 92.636719 11.671875 93.507812 11.671875 Z M 93.507812 11.671875 "/>
<path style=" stroke:none;fill-rule:nonzero;fill:rgb(0%,0%,0%);fill-opacity:1;" d="M 103.433594 5.605469 L 103.433594 9.890625 C 103.433594 10.492188 103.699219 10.9375 104.234375 11.226562 C 104.777344 11.519531 105.527344 11.664062 106.5 11.664062 C 107.441406 11.664062 108.175781 11.519531 108.710938 11.226562 C 109.253906 10.9375 109.527344 10.492188 109.527344 9.890625 L 109.527344 5.605469 L 111.15625 5.605469 L 111.15625 9.882812 C 111.15625 10.445312 110.945312 10.917969 110.523438 11.308594 C 110.109375 11.691406 109.546875 11.976562 108.835938 12.167969 C 108.132812 12.355469 107.351562 12.445312 106.480469 12.445312 C 105.597656 12.445312 104.800781 12.355469 104.089844 12.167969 C 103.386719 11.976562 102.828125 11.691406 102.421875 11.308594 C 102.023438 10.917969 101.824219 10.445312 101.824219 9.882812 L 101.824219 5.605469 Z M 103.433594 5.605469 "/>
<path style=" stroke:none;fill-rule:nonzero;fill:rgb(0%,0%,0%);fill-opacity:1;" d="M 120.378906 12.375 L 117.425781 9.605469 L 115.46875 9.605469 L 115.46875 12.375 L 113.855469 12.375 L 113.855469 5.605469 L 117.84375 5.605469 C 118.785156 5.605469 119.574219 5.695312 120.21875 5.875 C 120.871094 6.046875 121.351562 6.28125 121.667969 6.578125 C 121.992188 6.875 122.15625 7.214844 122.15625 7.597656 C 122.15625 8.066406 121.90625 8.476562 121.414062 8.832031 C 120.914062 9.191406 120.179688 9.425781 119.203125 9.546875 L 122.300781 12.375 Z M 115.46875 8.902344 L 117.84375 8.902344 C 118.722656 8.902344 119.382812 8.785156 119.816406 8.546875 C 120.253906 8.308594 120.472656 7.992188 120.472656 7.597656 C 120.472656 7.199219 120.253906 6.894531 119.816406 6.675781 C 119.390625 6.453125 118.734375 6.339844 117.84375 6.339844 L 115.46875 6.339844 Z M 115.46875 8.902344 "/>
<path style=" stroke:none;fill-rule:nonzero;fill:rgb(0%,0%,0%);fill-opacity:1;" d="M 126.273438 5.605469 L 126.273438 12.375 L 124.660156 12.375 L 124.660156 5.605469 Z M 126.273438 5.605469 "/>
<path style=" stroke:none;fill-rule:nonzero;fill:rgb(0%,0%,0%);fill-opacity:1;" d="M 132.949219 12.445312 C 132.136719 12.445312 131.40625 12.367188 130.753906 12.207031 C 130.113281 12.050781 129.605469 11.828125 129.234375 11.542969 C 128.871094 11.261719 128.679688 10.9375 128.671875 10.574219 L 130.390625 10.574219 C 130.453125 10.890625 130.691406 11.160156 131.117188 11.375 C 131.539062 11.589844 132.152344 11.691406 132.949219 11.691406 C 133.71875 11.691406 134.332031 11.589844 134.777344 11.386719 C 135.222656 11.175781 135.449219 10.90625 135.449219 10.574219 C 135.449219 10.3125 135.3125 10.101562 135.050781 9.941406 C 134.796875 9.777344 134.46875 9.65625 134.070312 9.574219 C 133.683594 9.492188 133.15625 9.398438 132.496094 9.296875 C 131.671875 9.179688 131.011719 9.066406 130.519531 8.953125 C 130.035156 8.832031 129.617188 8.652344 129.269531 8.40625 C 128.914062 8.15625 128.742188 7.820312 128.742188 7.398438 C 128.742188 7.03125 128.910156 6.703125 129.25 6.417969 C 129.597656 6.136719 130.085938 5.914062 130.699219 5.753906 C 131.324219 5.597656 132.042969 5.519531 132.839844 5.519531 C 134.007812 5.519531 134.964844 5.679688 135.703125 6.003906 C 136.4375 6.320312 136.855469 6.742188 136.953125 7.261719 L 135.175781 7.261719 C 135.113281 7.003906 134.859375 6.773438 134.417969 6.578125 C 133.980469 6.378906 133.40625 6.28125 132.695312 6.28125 C 132.015625 6.28125 131.460938 6.375 131.027344 6.566406 C 130.601562 6.761719 130.390625 7.027344 130.390625 7.367188 C 130.390625 7.613281 130.519531 7.8125 130.773438 7.972656 C 131.027344 8.125 131.339844 8.246094 131.714844 8.328125 C 132.085938 8.40625 132.613281 8.496094 133.292969 8.597656 C 134.113281 8.722656 134.769531 8.84375 135.269531 8.960938 C 135.761719 9.082031 136.183594 9.265625 136.535156 9.515625 C 136.898438 9.769531 137.082031 10.105469 137.082031 10.535156 C 137.082031 10.867188 136.917969 11.175781 136.589844 11.464844 C 136.273438 11.757812 135.804688 11.996094 135.175781 12.179688 C 134.546875 12.355469 133.804688 12.445312 132.949219 12.445312 Z M 132.949219 12.445312 "/>
<path style=" stroke:none;fill-rule:nonzero;fill:rgb(0%,0%,0%);fill-opacity:1;" d="M 152.027344 5.65625 L 152.027344 12.375 L 150.414062 12.375 L 150.414062 7.367188 L 146.316406 12.375 L 145.175781 12.375 L 141.078125 7.359375 L 141.078125 12.375 L 139.464844 12.375 L 139.464844 5.65625 L 141.207031 5.65625 L 145.753906 11.207031 L 150.304688 5.65625 Z M 152.027344 5.65625 "/>
</g>
</svg>
